<?xml version="1.0" encoding="UTF-8" standalone="no"?>
<!-- Created with Inkscape (http://www.inkscape.org/) -->

<svg
   xmlns:dc="http://purl.org/dc/elements/1.1/"
   xmlns:cc="http://creativecommons.org/ns#"
   xmlns:rdf="http://www.w3.org/1999/02/22-rdf-syntax-ns#"
   xmlns:svg="http://www.w3.org/2000/svg"
   xmlns="http://www.w3.org/2000/svg"
   xmlns:sodipodi="http://sodipodi.sourceforge.net/DTD/sodipodi-0.dtd"
   xmlns:inkscape="http://www.inkscape.org/namespaces/inkscape"
   width="317.32593"
   height="107.93262"
   id="svg2"
   version="1.1"
   inkscape:version="0.48.4 r9939"
   sodipodi:docname="icat-logo6.3.svg">
  <defs
     id="defs4" />
  <sodipodi:namedview
     id="base"
     pagecolor="#ffffff"
     bordercolor="#666666"
     borderopacity="1.0"
     inkscape:pageopacity="0.0"
     inkscape:pageshadow="2"
     inkscape:zoom="0.64287215"
     inkscape:cx="158.66296"
     inkscape:cy="53.966309"
     inkscape:document-units="px"
     inkscape:current-layer="layer1"
     showgrid="false"
     fit-margin-top="0"
     fit-margin-left="0"
     fit-margin-right="0"
     fit-margin-bottom="0"
     inkscape:window-width="1366"
     inkscape:window-height="709"
     inkscape:window-x="0"
     inkscape:window-y="25"
     inkscape:window-maximized="1" />
  <metadata
     id="metadata7">
    <rdf:RDF>
      <cc:Work
         rdf:about="">
        <dc:format>image/svg+xml</dc:format>
        <dc:type
           rdf:resource="http://purl.org/dc/dcmitype/StillImage" />
        <dc:title></dc:title>
      </cc:Work>
    </rdf:RDF>
  </metadata>
  <g
     inkscape:label="Layer 1"
     inkscape:groupmode="layer"
     id="layer1"
     transform="translate(-288.68685,-455.52559)">
    <path
       inkscape:connector-curvature="0"
       id="path3838"
       style="font-size:144px;font-style:normal;font-variant:normal;font-weight:normal;font-stretch:normal;line-height:125%;letter-spacing:0px;word-spacing:0px;fill:#000000;fill-opacity:1;stroke:none;font-family:Josefin Sans;-inkscape-font-specification:Josefin Sans"
       d="m 300.69029,460.13359 5.904,0 0,100.8 -5.904,0 0,-100.8" />
    <path
       style="font-size:144px;font-style:normal;font-variant:normal;font-weight:normal;font-stretch:normal;line-height:125%;letter-spacing:0px;word-spacing:0px;fill:#000000;fill-opacity:1;stroke:none;font-family:Josefin Sans;-inkscape-font-specification:Josefin Sans"
       d="M 81.09375,3.46875 C 73.9897,3.46886 67.30246,4.8411 61.0625,7.625 59.130087,8.457451 57.285101,9.4117302 55.5,10.4375 l 15.3125,0 c 3.316979,-0.7998195 6.748899,-1.2186934 10.28125,-1.21875 4.22394,10e-5 8.25369,0.56685 12.09375,1.71875 3.93593,1.0561 7.57742,2.6091 10.9375,4.625 0.57592,-0.76791 1.08242,-1.60465 1.5625,-2.46875 0.57592,-0.8639 1.17392,-1.6694 1.75,-2.4375 C 103.50142,8.35235 99.32218,6.5606 94.90625,5.3125 90.58618,4.06461 85.98969,3.46886 81.09375,3.46875 z M 49.1875,14.6875 c -1.58508,1.25177 -3.090303,2.590328 -4.53125,4.03125 -4.60801,4.60809 -8.28076,10.07033 -10.96875,16.40625 -2.68801,6.24007 -4.03125,12.92731 -4.03125,20.03125 0,7.10405 1.34324,13.76004 4.03125,20 2.68799,6.24003 6.36074,11.73352 10.96875,16.4375 4.70398,4.60801 10.16622,8.24951 16.40625,10.9375 6.23996,2.688 12.9272,4.03125 20.03125,4.03125 4.89594,0 9.49243,-0.627 13.8125,-1.875 4.41593,-1.34399 8.53492,-3.10449 12.375,-5.3125 l -3.3125,-4.90625 c -3.45608,2.01601 -7.09757,3.59801 -10.9375,4.75 -3.84006,1.05601 -7.93006,1.59376 -12.25,1.59375 -6.24005,1e-5 -12.09054,-1.22499 -17.5625,-3.625 -5.37603,-2.39999 -10.12203,-5.65323 -14.25,-9.78125 C 44.84073,83.27828 41.58748,78.47203 39.1875,73 36.88349,67.43204 35.71874,61.5213 35.71875,55.28125 c -1e-5,-6.33594 1.16474,-12.27568 3.46875,-17.84375 2.39998,-5.56792 5.65323,-10.40317 9.78125,-14.53125 1.921801,-1.966466 3.977014,-3.741264 6.1875,-5.3125 l 0,-2.90625 -5.96875,0 z"
       transform="translate(300.69029,455.52559)"
       id="path3840"
       inkscape:connector-curvature="0" />
    <path
       style="font-size:144px;font-style:normal;font-variant:normal;font-weight:normal;font-stretch:normal;line-height:125%;letter-spacing:0px;word-spacing:0px;fill:#000000;fill-opacity:1;stroke:none;font-family:Josefin Sans;-inkscape-font-specification:Josefin Sans"
       d="M 182.5 0 C 175.01196 17.66409 167.54822 35.24682 160.15625 52.71875 C 156.28849 61.860729 152.36278 71.086731 148.46875 80.28125 L 154.625 80.28125 C 157.08495 74.515741 159.57059 68.764931 162.03125 63 L 162.375 62.21875 L 164.8125 56.4375 L 164.78125 56.4375 C 164.91197 56.131114 165.05677 55.837398 165.1875 55.53125 C 168.12886 48.643047 171.05869 41.801763 174 35 C 177.16796 27.89608 180.00395 20.70234 182.5 13.40625 C 182.69195 14.07835 182.87045 14.73434 183.0625 15.40625 C 183.35045 16.07834 183.5892 16.76559 183.78125 17.4375 C 186.5652 23.96559 189.31194 30.44308 192 36.875 C 194.78394 43.30707 197.55969 49.81356 200.34375 56.4375 L 169.8125 56.4375 L 167.34375 62.21875 L 199.8125 62.21875 L 202.78125 62.21875 L 208.84375 62.21875 C 207.50779 59.062065 206.14573 55.870073 204.8125 52.71875 C 197.42044 35.24682 189.98794 17.66409 182.5 0 z M 204.90625 67.1875 C 207.26058 72.729797 209.58342 78.268536 211.875 83.8125 C 214.94692 91.01252 218.02167 98.20626 221.09375 105.40625 L 227.125 105.40625 C 221.69313 92.592773 216.31659 79.895199 210.9375 67.1875 L 204.90625 67.1875 z M 146.46875 85.03125 C 144.08343 90.662417 141.72945 96.272721 139.34375 101.90625 L 142.75 105.40625 L 144.03125 105.40625 C 146.93005 98.612184 149.81166 91.825341 152.625 85.03125 L 146.46875 85.03125 z "
       transform="translate(288.68685,455.52559)"
       id="path3842" />
    <path
       style="font-size:144px;font-style:normal;font-variant:normal;font-weight:normal;font-stretch:normal;line-height:125%;letter-spacing:0px;word-spacing:0px;fill:#000000;fill-opacity:1;stroke:none;font-family:Josefin Sans;-inkscape-font-specification:Josefin Sans"
       d="m 223.8125,4.59375 0,5.78125 24.59375,0 12.25,0 5.90625,0 3.96875,0 32.90625,0 0,-5.78125 -79.625,0 z m 36.84375,10.6875 0,90.125 5.90625,0 0,-90.125 -5.90625,0 z"
       transform="translate(300.69029,455.52559)"
       id="path3844"
       inkscape:connector-curvature="0" />
    <rect
       style="fill:#000000;fill-opacity:1;stroke:none"
       id="rect2993"
       width="69.896431"
       height="5.8760071"
       x="300.71051"
       y="460.16058"
       rx="2.1094237e-15"
       ry="2.1094237e-15" />
    <rect
       style="fill:#000000;fill-opacity:1;stroke:none"
       id="rect2993-0-8"
       width="46.152523"
       height="5.8759999"
       x="510.27191"
       y="555.0368"
       rx="1.8086688e-15"
       ry="2.1094237e-15" />
    <path
       inkscape:connector-curvature="0"
       id="path3840-6"
       style="font-size:144px;font-style:normal;font-variant:normal;font-weight:normal;font-stretch:normal;line-height:125%;letter-spacing:0px;word-spacing:0px;fill:#000000;fill-opacity:1;stroke:none;font-family:Josefin Sans;-inkscape-font-specification:Josefin Sans"
       d="m 400.50462,541.95936 2.63792,3.89955 c -3.05853,1.75862 -6.34637,3.17316 -9.86356,4.24362 -3.44083,0.994 -7.11099,1.491 -11.01049,1.491 -5.6582,0 -10.97228,-1.07046 -15.94226,-3.21139 -4.97004,-2.14092 -9.32835,-5.04646 -13.07496,-8.71663 -3.67017,-3.74661 -6.57571,-8.10492 -8.71663,-13.07496 -2.14094,-4.96998 -3.2114,-10.28406 -3.2114,-15.94227 0,-5.65812 1.07046,-10.9722 3.2114,-15.94227 2.14092,-5.04641 5.04646,-9.40472 8.71663,-13.07495 3.74661,-3.74655 8.10492,-6.69032 13.07496,-8.83133 4.96998,-2.21731 10.28406,-3.326 15.94226,-3.32608 3.8995,8e-5 7.56966,0.49708 11.01049,1.491 3.51719,0.99408 6.84326,2.40862 9.97826,4.24362 -0.45884,0.61178 -0.91761,1.2617 -1.37631,1.94978 -0.38238,0.68823 -0.80292,1.33815 -1.26162,1.94977 -2.67623,-1.60561 -5.58176,-2.829 -8.71664,-3.67016 -3.05852,-0.91746 -6.26991,-1.37623 -9.63418,-1.37631 -4.97005,8e-5 -9.67243,0.99408 -14.10718,2.98201 -4.35834,1.91161 -8.18143,4.54954 -11.46926,7.91378 -3.28787,3.28792 -5.88757,7.14924 -7.7991,11.58396 -1.83509,4.43483 -2.75263,9.17545 -2.75262,14.22188 -1e-5,4.97005 0.91753,9.67243 2.75262,14.10718 1.91153,4.35834 4.51123,8.18143 7.7991,11.46926 3.28783,3.28787 7.07268,5.88756 11.35456,7.7991 4.35829,1.91155 9.02245,2.86732 13.9925,2.86731 3.44073,1e-5 6.69035,-0.42053 9.74887,-1.26162 3.05841,-0.91753 5.96395,-2.17915 8.71664,-3.78485" />
    <rect
       style="fill:#000000;fill-opacity:1;stroke:none"
       id="rect2993-0-9"
       width="34.596161"
       height="4.73"
       x="402.76083"
       y="540.54651"
       ry="2.1094237e-15" />
    <rect
       style="fill:#000000;fill-opacity:1;stroke:none"
       id="rect3905"
       width="2.7"
       height="4.73"
       x="42.08094"
       y="672.5426"
       rx="2.1094237e-15"
       ry="2.1094237e-15"
       transform="matrix(0.8398215,-0.54286264,0.54286264,0.8398215,0,0)" />
    <path
       sodipodi:type="arc"
       style="fill:#ffffff;fill-opacity:1;stroke:#000000;stroke-width:2;stroke-miterlimit:4;stroke-opacity:1;stroke-dasharray:none"
       id="path3926"
       sodipodi:cx="7.8690419"
       sodipodi:cy="121.77348"
       sodipodi:rx="3.4099181"
       sodipodi:ry="3.4099181"
       d="m 11.27896,121.77348 c 0,1.88325 -1.5266723,3.40992 -3.4099181,3.40992 -1.8832457,0 -3.4099181,-1.52667 -3.4099181,-3.40992 0,-1.88324 1.5266724,-3.40991 3.4099181,-3.40991 1.8832458,0 3.4099181,1.52667 3.4099181,3.40991 z"
       transform="translate(295.96886,435.91847)" />
    <path
       sodipodi:type="arc"
       style="fill:#ffffff;fill-opacity:1;stroke:#000000;stroke-width:2;stroke-miterlimit:4;stroke-opacity:1;stroke-dasharray:none"
       id="path3926-4"
       sodipodi:cx="7.8690419"
       sodipodi:cy="121.77348"
       sodipodi:rx="3.4099181"
       sodipodi:ry="3.4099181"
       d="m 11.27896,121.77348 c 0,1.88325 -1.5266723,3.40992 -3.4099181,3.40992 -1.8832457,0 -3.4099181,-1.52667 -3.4099181,-3.40992 0,-1.88324 1.5266724,-3.40991 3.4099181,-3.40991 1.8832458,0 3.4099181,1.52667 3.4099181,3.40991 z"
       transform="translate(396.117,431.26271)" />
    <path
       sodipodi:type="arc"
       style="fill:#ffffff;fill-opacity:1;stroke:#000000;stroke-width:2;stroke-miterlimit:4;stroke-opacity:1;stroke-dasharray:none"
       id="path3926-6"
       sodipodi:cx="7.8690419"
       sodipodi:cy="121.77348"
       sodipodi:rx="3.4099181"
       sodipodi:ry="3.4099181"
       d="m 11.27896,121.77348 c 0,1.88325 -1.5266723,3.40992 -3.4099181,3.40992 -1.8832457,0 -3.4099181,-1.52667 -3.4099181,-3.40992 0,-1.88324 1.5266724,-3.40991 3.4099181,-3.40991 1.8832458,0 3.4099181,1.52667 3.4099181,3.40991 z"
       transform="translate(396.117,345.68051)" />
    <path
       sodipodi:type="arc"
       style="fill:#ffffff;fill-opacity:1;stroke:#000000;stroke-width:2;stroke-miterlimit:4;stroke-opacity:1;stroke-dasharray:none"
       id="path3926-1"
       sodipodi:cx="7.8690419"
       sodipodi:cy="121.77348"
       sodipodi:rx="3.4099181"
       sodipodi:ry="3.4099181"
       d="m 11.27896,121.77348 c 0,1.88325 -1.5266723,3.40992 -3.4099181,3.40992 -1.8832457,0 -3.4099181,-1.52667 -3.4099181,-3.40992 0,-1.88324 1.5266724,-3.40991 3.4099181,-3.40991 1.8832458,0 3.4099181,1.52667 3.4099181,3.40991 z"
       transform="translate(391.30358,354.34464)" />
    <path
       sodipodi:type="arc"
       style="fill:#ffffff;fill-opacity:1;stroke:#000000;stroke-width:2;stroke-miterlimit:4;stroke-opacity:1;stroke-dasharray:none"
       id="path3926-3"
       sodipodi:cx="7.8690419"
       sodipodi:cy="121.77348"
       sodipodi:rx="3.4099181"
       sodipodi:ry="3.4099181"
       d="m 11.27896,121.77348 a 3.4099181,3.4099181 0 1 1 -6.8198362,0 3.4099181,3.4099181 0 1 1 6.8198362,0 z"
       transform="translate(422.54669,435.91847)" />
    <path
       sodipodi:type="arc"
       style="fill:#ffffff;fill-opacity:1;stroke:#000000;stroke-width:2;stroke-miterlimit:4;stroke-opacity:1;stroke-dasharray:none"
       id="path3926-9"
       sodipodi:cx="7.8690419"
       sodipodi:cy="121.77348"
       sodipodi:rx="3.4099181"
       sodipodi:ry="3.4099181"
       d="m 11.27896,121.77348 c 0,1.88325 -1.5266723,3.40992 -3.4099181,3.40992 -1.8832457,0 -3.4099181,-1.52667 -3.4099181,-3.40992 0,-1.88324 1.5266724,-3.40991 3.4099181,-3.40991 1.8832458,0 3.4099181,1.52667 3.4099181,3.40991 z"
       transform="translate(518.5701,341.1559)" />
    <path
       sodipodi:type="arc"
       style="fill:#ffffff;fill-opacity:1;stroke:#000000;stroke-width:2;stroke-miterlimit:4;stroke-opacity:1;stroke-dasharray:none"
       id="path3926-5"
       sodipodi:cx="7.8690419"
       sodipodi:cy="121.77348"
       sodipodi:rx="3.4099181"
       sodipodi:ry="3.4099181"
       d="m 11.27896,121.77348 c 0,1.88325 -1.5266723,3.40992 -3.4099181,3.40992 -1.8832457,0 -3.4099181,-1.52667 -3.4099181,-3.40992 0,-1.88324 1.5266724,-3.40991 3.4099181,-3.40991 1.8832458,0 3.4099181,1.52667 3.4099181,3.40991 z"
       transform="translate(593.73382,341.15589)" />
    <path
       sodipodi:type="arc"
       style="fill:#ffffff;fill-opacity:1;stroke:#000000;stroke-width:2;stroke-miterlimit:4;stroke-opacity:1;stroke-dasharray:none"
       id="path3926-1-1"
       sodipodi:cx="7.8690419"
       sodipodi:cy="121.77348"
       sodipodi:rx="3.4099181"
       sodipodi:ry="3.4099181"
       d="m 11.27896,121.77348 c 0,1.88325 -1.5266723,3.40992 -3.4099181,3.40992 -1.8832457,0 -3.4099181,-1.52667 -3.4099181,-3.40992 0,-1.88324 1.5266724,-3.40991 3.4099181,-3.40991 1.8832458,0 3.4099181,1.52667 3.4099181,3.40991 z"
       transform="translate(345.57621,349.82003)" />
    <path
       sodipodi:type="arc"
       style="fill:#ffffff;fill-opacity:1;stroke:#000000;stroke-width:2;stroke-miterlimit:4;stroke-opacity:1;stroke-dasharray:none"
       id="path3926-3-4"
       sodipodi:cx="7.8690419"
       sodipodi:cy="121.77348"
       sodipodi:rx="3.4099181"
       sodipodi:ry="3.4099181"
       d="m 11.27896,121.77348 c 0,1.88325 -1.5266723,3.40992 -3.4099181,3.40992 -1.8832457,0 -3.4099181,-1.52667 -3.4099181,-3.40992 0,-1.88324 1.5266724,-3.40991 3.4099181,-3.40991 1.8832458,0 3.4099181,1.52667 3.4099181,3.40991 z"
       transform="translate(432.85168,412.31481)" />
    <rect
       style="fill:#000000;fill-opacity:1;stroke:none"
       id="rect4977"
       width="31.588663"
       height="5.8000002"
       x="456.1463"
       y="522.70593"
       rx="2.8750509e-15"
       ry="2.0849866e-15" />
    <path
       style="font-size:medium;font-style:normal;font-variant:normal;font-weight:normal;font-stretch:normal;text-indent:0;text-align:start;text-decoration:none;line-height:normal;letter-spacing:normal;word-spacing:normal;text-transform:none;direction:ltr;block-progression:tb;writing-mode:lr-tb;text-anchor:start;baseline-shift:baseline;color:#000000;fill:#000000;fill-opacity:1;stroke:none;stroke-width:5.80000019;marker:none;visibility:visible;display:inline;overflow:visible;enable-background:accumulate;font-family:Sans;-inkscape-font-specification:Sans"
       d="m 153.21875,67.1875 -14.6875,34.53125 5.34375,2.28125 15.65625,-36.8125 -6.3125,0 z"
       id="path4987"
       transform="translate(300.69029,455.52559)"
       inkscape:connector-curvature="0" />
    <path
       style="font-size:medium;font-style:normal;font-variant:normal;font-weight:normal;font-stretch:normal;text-indent:0;text-align:start;text-decoration:none;line-height:normal;letter-spacing:normal;word-spacing:normal;text-transform:none;direction:ltr;block-progression:tb;writing-mode:lr-tb;text-anchor:start;baseline-shift:baseline;color:#000000;fill:#000000;fill-opacity:1;stroke:none;stroke-width:5.80000019;marker:none;visibility:visible;display:inline;overflow:visible;enable-background:accumulate;font-family:Sans;-inkscape-font-specification:Sans"
       d="m 170.40625,26.84375 -14,32.875 6.3125,0 10.8125,-25.4375 c -0.36836,-0.863043 -0.72546,-1.730548 -1.09375,-2.59375 -0.6677,-1.615356 -1.35823,-3.229063 -2.03125,-4.84375 z"
       transform="translate(300.69029,455.52559)"
       id="path4987-4"
       inkscape:connector-curvature="0" />
    <path
       sodipodi:type="arc"
       style="fill:#ffffff;fill-opacity:1;stroke:#000000;stroke-width:2;stroke-miterlimit:4;stroke-opacity:1;stroke-dasharray:none"
       id="path3926-3-2"
       sodipodi:cx="7.8690419"
       sodipodi:cy="121.77348"
       sodipodi:rx="3.4099181"
       sodipodi:ry="3.4099181"
       d="m 11.27896,121.77348 a 3.4099181,3.4099181 0 1 1 -6.8198362,0 3.4099181,3.4099181 0 1 1 6.8198362,0 z"
       transform="translate(434.47672,435.91847)" />
    <path
       style="font-size:144px;font-style:normal;font-variant:normal;font-weight:normal;font-stretch:normal;line-height:125%;letter-spacing:0px;word-spacing:0px;fill:#000000;fill-opacity:1;stroke:none;font-family:Josefin Sans;-inkscape-font-specification:Josefin Sans"
       d="M 193.53125 67.15625 C 195.88558 72.69855 198.20842 78.23729 200.5 83.78125 C 203.57192 90.98127 206.64667 98.17501 209.71875 105.375 L 209.78125 105.375 L 214.09375 101.4375 C 209.23058 89.962957 204.38799 78.556105 199.5625 67.15625 L 193.53125 67.15625 z "
       transform="translate(288.68685,455.52559)"
       id="path3842-2" />
    <path
       style="font-size:144px;font-style:normal;font-variant:normal;font-weight:normal;font-stretch:normal;line-height:125%;letter-spacing:0px;word-spacing:0px;fill:#000000;fill-opacity:1;stroke:none;font-family:Josefin Sans;-inkscape-font-specification:Josefin Sans"
       d="m 170.4375,26.84375 -3.0625,7.1875 c 2.50821,5.876365 5.02367,11.747752 7.53125,17.625 l 4.6875,-3.1875 c -3.05987,-7.230459 -6.11034,-14.43138 -9.15625,-21.625 z"
       transform="translate(300.69029,455.52559)"
       id="path3842-2-5"
       inkscape:connector-curvature="0" />
    <path
       sodipodi:type="arc"
       style="fill:#ffffff;fill-opacity:1;stroke:#000000;stroke-width:2;stroke-miterlimit:4;stroke-opacity:1;stroke-dasharray:none"
       id="path3926-3-2-3"
       sodipodi:cx="7.8690419"
       sodipodi:cy="121.77348"
       sodipodi:rx="3.4099181"
       sodipodi:ry="3.4099181"
       d="m 11.27896,121.77348 c 0,1.88325 -1.5266723,3.40992 -3.4099181,3.40992 -1.8832457,0 -3.4099181,-1.52667 -3.4099181,-3.40992 0,-1.88324 1.5266724,-3.40991 3.4099181,-3.40991 1.8832458,0 3.4099181,1.52667 3.4099181,3.40991 z"
       transform="translate(470.01221,383.41762)" />
    <path
       sodipodi:type="arc"
       style="fill:#ffffff;fill-opacity:1;stroke:#000000;stroke-width:2;stroke-miterlimit:4;stroke-opacity:1;stroke-dasharray:none"
       id="path3926-3-2-3-9"
       sodipodi:cx="7.8690419"
       sodipodi:cy="121.77348"
       sodipodi:rx="3.4099181"
       sodipodi:ry="3.4099181"
       d="m 11.27896,121.77348 a 3.4099181,3.4099181 0 1 1 -6.8198362,0 3.4099181,3.4099181 0 1 1 6.8198362,0 z"
       transform="translate(492.40428,435.91847)" />
    <path
       style="fill:#000000;fill-opacity:1;stroke:none"
       d="m 528.09654,470.78921 0,5.8125 28.34375,0 0,-5.8125 z m 33.28125,0 0,5.8125 40.3125,0 0,-5.8125 z"
       id="rect4977-6"
       inkscape:connector-curvature="0"
       sodipodi:nodetypes="cccccccccc" />
    <rect
       style="fill:#000000;fill-opacity:1;stroke:none"
       id="rect4977-6-2"
       width="84.006401"
       height="5.8000002"
       x="473.22089"
       y="-556.43146"
       rx="7.6458666e-15"
       ry="2.0849866e-15"
       transform="matrix(0,1,-1,0,0,0)" />
    <path
       sodipodi:type="arc"
       style="fill:#ffffff;fill-opacity:1;stroke:#000000;stroke-width:2;stroke-miterlimit:4;stroke-opacity:1;stroke-dasharray:none"
       id="path3926-9-1"
       sodipodi:cx="7.8690419"
       sodipodi:cy="121.77348"
       sodipodi:rx="3.4099181"
       sodipodi:ry="3.4099181"
       d="m 11.27896,121.77348 c 0,1.88325 -1.5266723,3.40992 -3.4099181,3.40992 -1.8832457,0 -3.4099181,-1.52667 -3.4099181,-3.40992 0,-1.88324 1.5266724,-3.40991 3.4099181,-3.40991 1.8832458,0 3.4099181,1.52667 3.4099181,3.40991 z"
       transform="translate(518.5701,351.92198)" />
    <path
       sodipodi:type="arc"
       style="fill:#ffffff;fill-opacity:1;stroke:#000000;stroke-width:2;stroke-miterlimit:4;stroke-opacity:1;stroke-dasharray:none"
       id="path3926-5-1"
       sodipodi:cx="7.8690419"
       sodipodi:cy="121.77348"
       sodipodi:rx="3.4099181"
       sodipodi:ry="3.4099181"
       d="m 11.27896,121.77348 c 0,1.88325 -1.5266723,3.40992 -3.4099181,3.40992 -1.8832457,0 -3.4099181,-1.52667 -3.4099181,-3.40992 0,-1.88324 1.5266724,-3.40991 3.4099181,-3.40991 1.8832458,0 3.4099181,1.52667 3.4099181,3.40991 z"
       transform="translate(593.73382,351.92198)" />
    <path
       sodipodi:type="arc"
       style="fill:#ffffff;fill-opacity:1;stroke:#000000;stroke-width:2;stroke-miterlimit:4;stroke-opacity:1;stroke-dasharray:none"
       id="path3926-9-1-8"
       sodipodi:cx="7.8690419"
       sodipodi:cy="121.77348"
       sodipodi:rx="3.4099181"
       sodipodi:ry="3.4099181"
       d="m 11.27896,121.77348 a 3.4099181,3.4099181 0 1 1 -6.8198362,0 3.4099181,3.4099181 0 1 1 6.8198362,0 z"
       transform="translate(556.57426,435.91847)" />
    <path
       inkscape:connector-curvature="0"
       id="path3838-3"
       style="font-size:144px;font-style:normal;font-variant:normal;font-weight:normal;font-stretch:normal;line-height:125%;letter-spacing:0px;word-spacing:0px;fill:#000000;fill-opacity:1;stroke:none;font-family:Josefin Sans;-inkscape-font-specification:Josefin Sans"
       d="m 290.14477,460.13359 5.904,0 0,100.8 -5.904,0 0,-100.8" />
    <path
       sodipodi:type="arc"
       style="fill:#ffffff;fill-opacity:1;stroke:#000000;stroke-width:2;stroke-miterlimit:4;stroke-opacity:1;stroke-dasharray:none"
       id="path3926-1-1-5"
       sodipodi:cx="7.8690419"
       sodipodi:cy="121.77348"
       sodipodi:rx="3.4099181"
       sodipodi:ry="3.4099181"
       d="m 11.27896,121.77348 c 0,1.88325 -1.5266723,3.40992 -3.4099181,3.40992 -1.8832457,0 -3.4099181,-1.52667 -3.4099181,-3.40992 0,-1.88324 1.5266724,-3.40991 3.4099181,-3.40991 1.8832458,0 3.4099181,1.52667 3.4099181,3.40991 z"
       transform="translate(285.22773,341.1559)" />
    <path
       sodipodi:type="arc"
       style="fill:#ffffff;fill-opacity:1;stroke:#000000;stroke-width:2;stroke-miterlimit:4;stroke-opacity:1;stroke-dasharray:none"
       id="path3926-0"
       sodipodi:cx="7.8690419"
       sodipodi:cy="121.77348"
       sodipodi:rx="3.4099181"
       sodipodi:ry="3.4099181"
       d="m 11.27896,121.77348 c 0,1.88325 -1.5266723,3.40992 -3.4099181,3.40992 -1.8832457,0 -3.4099181,-1.52667 -3.4099181,-3.40992 0,-1.88324 1.5266724,-3.40991 3.4099181,-3.40991 1.8832458,0 3.4099181,1.52667 3.4099181,3.40991 z"
       transform="translate(285.22773,435.91847)" />
    <path
       sodipodi:type="arc"
       style="fill:#ffffff;fill-opacity:1;stroke:#000000;stroke-width:2;stroke-miterlimit:4;stroke-opacity:1;stroke-dasharray:none"
       id="path3926-3-4-0"
       sodipodi:cx="7.8690419"
       sodipodi:cy="121.77348"
       sodipodi:rx="3.4099181"
       sodipodi:ry="3.4099181"
       d="m 11.27896,121.77348 c 0,1.88325 -1.5266723,3.40992 -3.4099181,3.40992 -1.8832457,0 -3.4099181,-1.52667 -3.4099181,-3.40992 0,-1.88324 1.5266724,-3.40991 3.4099181,-3.40991 1.8832458,0 3.4099181,1.52667 3.4099181,3.40991 z"
       transform="translate(489.34892,402.47537)" />
  </g>
</svg>
