<?xml version="1.0" encoding="UTF-8" standalone="no"?>
<!-- Created with Inkscape (http://www.inkscape.org/) -->

<svg
   xmlns:dc="http://purl.org/dc/elements/1.1/"
   xmlns:cc="http://creativecommons.org/ns#"
   xmlns:rdf="http://www.w3.org/1999/02/22-rdf-syntax-ns#"
   xmlns:svg="http://www.w3.org/2000/svg"
   xmlns="http://www.w3.org/2000/svg"
   xmlns:sodipodi="http://sodipodi.sourceforge.net/DTD/sodipodi-0.dtd"
   xmlns:inkscape="http://www.inkscape.org/namespaces/inkscape"
   width="1134.9926"
   height="126.58038"
   id="svg2"
   version="1.1"
   inkscape:version="0.48.4 r9939"
   sodipodi:docname="icat-logo7.1.svg">
  <defs
     id="defs4" />
  <sodipodi:namedview
     id="base"
     pagecolor="#ffffff"
     bordercolor="#666666"
     borderopacity="1.0"
     inkscape:pageopacity="0.0"
     inkscape:pageshadow="2"
     inkscape:zoom="0.32143607"
     inkscape:cx="626.20979"
     inkscape:cy="12.255084"
     inkscape:document-units="px"
     inkscape:current-layer="layer1"
     showgrid="false"
     fit-margin-top="10"
     fit-margin-left="10"
     fit-margin-right="10"
     fit-margin-bottom="10"
     inkscape:window-width="1366"
     inkscape:window-height="709"
     inkscape:window-x="0"
     inkscape:window-y="25"
     inkscape:window-maximized="1" />
  <metadata
     id="metadata7">
    <rdf:RDF>
      <cc:Work
         rdf:about="">
        <dc:format>image/svg+xml</dc:format>
        <dc:type
           rdf:resource="http://purl.org/dc/dcmitype/StillImage" />
        <dc:title></dc:title>
      </cc:Work>
    </rdf:RDF>
  </metadata>
  <g
     inkscape:label="Layer 1"
     inkscape:groupmode="layer"
     id="layer1"
     transform="translate(-278.69648,-445.52563)">
    <g
       id="g5499"
       transform="translate(-6.4636231e-7,3.8007431e-5)">
      <path
         d="m 300.69029,460.13359 5.904,0 0,100.8 -5.904,0 0,-100.8"
         style="font-size:144px;font-style:normal;font-variant:normal;font-weight:normal;font-stretch:normal;line-height:125%;letter-spacing:0px;word-spacing:0px;fill:#000000;fill-opacity:1;stroke:none;font-family:Josefin Sans;-inkscape-font-specification:Josefin Sans"
         id="path3838"
         inkscape:connector-curvature="0" />
      <path
         inkscape:connector-curvature="0"
         id="path3840"
         d="m 603.78404,458.99434 c -7.10405,1.1e-4 -13.79129,1.37235 -20.03125,4.15625 -1.93241,0.83245 -3.7774,1.78673 -5.5625,2.8125 l 15.3125,0 c 3.31698,-0.79982 6.7489,-1.21869 10.28125,-1.21875 4.22394,10e-5 8.25369,0.56685 12.09375,1.71875 3.93593,1.0561 7.57742,2.6091 10.9375,4.625 0.57592,-0.76791 1.08242,-1.60465 1.5625,-2.46875 0.57592,-0.8639 1.17392,-1.6694 1.75,-2.4375 -3.93608,-2.3039 -8.11532,-4.09565 -12.53125,-5.34375 -4.32007,-1.24789 -8.91656,-1.84364 -13.8125,-1.84375 z m -31.90625,11.21875 c -1.58508,1.25177 -3.0903,2.59033 -4.53125,4.03125 -4.60801,4.60809 -8.28076,10.07033 -10.96875,16.40625 -2.68801,6.24007 -4.03125,12.92731 -4.03125,20.03125 0,7.10405 1.34324,13.76004 4.03125,20 2.68799,6.24003 6.36074,11.73352 10.96875,16.4375 4.70398,4.60801 10.16622,8.24951 16.40625,10.9375 6.23996,2.688 12.9272,4.03125 20.03125,4.03125 4.89594,0 9.49243,-0.627 13.8125,-1.875 4.41593,-1.34399 8.53492,-3.10449 12.375,-5.3125 l -3.3125,-4.90625 c -3.45608,2.01601 -7.09757,3.59801 -10.9375,4.75 -3.84006,1.05601 -7.93006,1.59376 -12.25,1.59375 -6.24005,1e-5 -12.09054,-1.22499 -17.5625,-3.625 -5.37603,-2.39999 -10.12203,-5.65323 -14.25,-9.78125 -4.12802,-4.12797 -7.38127,-8.93422 -9.78125,-14.40625 -2.30401,-5.56796 -3.46876,-11.4787 -3.46875,-17.71875 -10e-6,-6.33594 1.16474,-12.27568 3.46875,-17.84375 2.39998,-5.56792 5.65323,-10.40317 9.78125,-14.53125 1.9218,-1.96647 3.97701,-3.74126 6.1875,-5.3125 l 0,-2.90625 -5.96875,0 z"
         style="font-size:144px;font-style:normal;font-variant:normal;font-weight:normal;font-stretch:normal;line-height:125%;letter-spacing:0px;word-spacing:0px;fill:#000000;fill-opacity:1;stroke:none;font-family:Josefin Sans;-inkscape-font-specification:Josefin Sans" />
      <path
         inkscape:connector-curvature="0"
         id="path3842"
         d="m 929.18685,455.52559 c -7.48804,17.66409 -14.95178,35.24682 -22.34375,52.71875 -3.86776,9.14198 -7.79347,18.36798 -11.6875,27.5625 l 6.15625,0 c 2.45995,-5.76551 4.94559,-11.51632 7.40625,-17.28125 l 0.34375,-0.78125 2.4375,-5.78125 -0.0312,0 c 0.13072,-0.30639 0.27552,-0.6001 0.40625,-0.90625 2.94136,-6.8882 5.87119,-13.72949 8.8125,-20.53125 3.16796,-7.10392 6.00395,-14.29766 8.5,-21.59375 0.19195,0.6721 0.37045,1.32809 0.5625,2 0.28795,0.67209 0.5267,1.35934 0.71875,2.03125 2.78395,6.52809 5.53069,13.00558 8.21875,19.4375 2.78394,6.43207 5.55969,12.93856 8.34375,19.5625 l -30.53125,0 -2.46875,5.78125 32.46875,0 2.96875,0 6.0625,0 c -1.33596,-3.15669 -2.69802,-6.34868 -4.03125,-9.5 -7.39206,-17.47193 -14.82456,-35.05466 -22.3125,-52.71875 z m 22.40625,67.1875 c 2.35433,5.5423 4.67717,11.08104 6.96875,16.625 3.07192,7.20002 6.14667,14.39376 9.21875,21.59375 l 6.03125,0 c -5.43187,-12.81348 -10.80841,-25.51105 -16.1875,-38.21875 l -6.03125,0 z m -58.4375,17.84375 c -2.38532,5.63117 -4.7393,11.24147 -7.125,16.875 l 3.40625,3.5 1.28125,0 c 2.8988,-6.79407 5.78041,-13.58091 8.59375,-20.375 l -6.15625,0 z"
         style="font-size:144px;font-style:normal;font-variant:normal;font-weight:normal;font-stretch:normal;line-height:125%;letter-spacing:0px;word-spacing:0px;fill:#000000;fill-opacity:1;stroke:none;font-family:Josefin Sans;-inkscape-font-specification:Josefin Sans" />
      <path
         inkscape:connector-curvature="0"
         id="path3844"
         d="m 1160.5028,460.11934 0,5.78125 24.5937,0 12.25,0 5.9063,0 3.9687,0 32.9063,0 0,-5.78125 -79.625,0 z m 36.8437,10.6875 0,90.125 5.9063,0 0,-90.125 -5.9063,0 z"
         style="font-size:144px;font-style:normal;font-variant:normal;font-weight:normal;font-stretch:normal;line-height:125%;letter-spacing:0px;word-spacing:0px;fill:#000000;fill-opacity:1;stroke:none;font-family:Josefin Sans;-inkscape-font-specification:Josefin Sans" />
      <rect
         ry="2.1094237e-15"
         rx="8.8020174e-15"
         y="460.16058"
         x="300.71051"
         height="5.8760071"
         width="291.65768"
         id="rect2993"
         style="fill:#000000;fill-opacity:1;stroke:none" />
      <rect
         ry="2.1094237e-15"
         rx="8.7503933e-15"
         y="555.0368"
         x="968.27191"
         height="5.8759999"
         width="223.28728"
         id="rect2993-0-8"
         style="fill:#000000;fill-opacity:1;stroke:none" />
      <path
         d="m 622.50462,541.95936 2.63792,3.89955 c -3.05853,1.75862 -6.34637,3.17316 -9.86356,4.24362 -3.44083,0.994 -7.11099,1.491 -11.01049,1.491 -5.6582,0 -10.97228,-1.07046 -15.94226,-3.21139 -4.97004,-2.14092 -9.32835,-5.04646 -13.07496,-8.71663 -3.67017,-3.74661 -6.57571,-8.10492 -8.71663,-13.07496 -2.14094,-4.96998 -3.2114,-10.28406 -3.2114,-15.94227 0,-5.65812 1.07046,-10.9722 3.2114,-15.94227 2.14092,-5.04641 5.04646,-9.40472 8.71663,-13.07495 3.74661,-3.74655 8.10492,-6.69032 13.07496,-8.83133 4.96998,-2.21731 10.28406,-3.326 15.94226,-3.32608 3.8995,8e-5 7.56966,0.49708 11.01049,1.491 3.51719,0.99408 6.84326,2.40862 9.97826,4.24362 -0.45884,0.61178 -0.91761,1.2617 -1.37631,1.94978 -0.38238,0.68823 -0.80292,1.33815 -1.26162,1.94977 -2.67623,-1.60561 -5.58176,-2.829 -8.71664,-3.67016 -3.05852,-0.91746 -6.26991,-1.37623 -9.63418,-1.37631 -4.97005,8e-5 -9.67243,0.99408 -14.10718,2.98201 -4.35834,1.91161 -8.18143,4.54954 -11.46926,7.91378 -3.28787,3.28792 -5.88757,7.14924 -7.7991,11.58396 -1.83509,4.43483 -2.75263,9.17545 -2.75262,14.22188 -10e-6,4.97005 0.91753,9.67243 2.75262,14.10718 1.91153,4.35834 4.51123,8.18143 7.7991,11.46926 3.28783,3.28787 7.07268,5.88756 11.35456,7.7991 4.35829,1.91155 9.02245,2.86732 13.9925,2.86731 3.44073,1e-5 6.69035,-0.42053 9.74887,-1.26162 3.05841,-0.91753 5.96395,-2.17915 8.71664,-3.78485"
         style="font-size:144px;font-style:normal;font-variant:normal;font-weight:normal;font-stretch:normal;line-height:125%;letter-spacing:0px;word-spacing:0px;fill:#000000;fill-opacity:1;stroke:none;font-family:Josefin Sans;-inkscape-font-specification:Josefin Sans"
         id="path3840-6"
         inkscape:connector-curvature="0" />
      <rect
         ry="2.1094237e-15"
         y="540.54651"
         x="624.76086"
         height="4.73"
         width="270.64621"
         id="rect2993-0-9"
         style="fill:#000000;fill-opacity:1;stroke:none" />
      <rect
         transform="matrix(0.8398215,-0.54286264,0.54286264,0.8398215,0,0)"
         ry="2.1094237e-15"
         rx="2.1094237e-15"
         y="793.06134"
         x="228.52116"
         height="4.73"
         width="2.7"
         id="rect3905"
         style="fill:#000000;fill-opacity:1;stroke:none" />
      <path
         transform="translate(295.96886,435.91847)"
         d="m 11.27896,121.77348 c 0,1.88325 -1.5266723,3.40992 -3.4099181,3.40992 -1.8832457,0 -3.4099181,-1.52667 -3.4099181,-3.40992 0,-1.88324 1.5266724,-3.40991 3.4099181,-3.40991 1.8832458,0 3.4099181,1.52667 3.4099181,3.40991 z"
         sodipodi:ry="3.4099181"
         sodipodi:rx="3.4099181"
         sodipodi:cy="121.77348"
         sodipodi:cx="7.8690419"
         id="path3926"
         style="fill:#ffffff;fill-opacity:1;stroke:#000000;stroke-width:2;stroke-miterlimit:4;stroke-opacity:1;stroke-dasharray:none"
         sodipodi:type="arc" />
      <path
         transform="translate(618.117,431.26271)"
         d="m 11.27896,121.77348 c 0,1.88325 -1.5266723,3.40992 -3.4099181,3.40992 -1.8832457,0 -3.4099181,-1.52667 -3.4099181,-3.40992 0,-1.88324 1.5266724,-3.40991 3.4099181,-3.40991 1.8832458,0 3.4099181,1.52667 3.4099181,3.40991 z"
         sodipodi:ry="3.4099181"
         sodipodi:rx="3.4099181"
         sodipodi:cy="121.77348"
         sodipodi:cx="7.8690419"
         id="path3926-4"
         style="fill:#ffffff;fill-opacity:1;stroke:#000000;stroke-width:2;stroke-miterlimit:4;stroke-opacity:1;stroke-dasharray:none"
         sodipodi:type="arc" />
      <path
         transform="translate(618.117,345.68051)"
         d="m 11.27896,121.77348 c 0,1.88325 -1.5266723,3.40992 -3.4099181,3.40992 -1.8832457,0 -3.4099181,-1.52667 -3.4099181,-3.40992 0,-1.88324 1.5266724,-3.40991 3.4099181,-3.40991 1.8832458,0 3.4099181,1.52667 3.4099181,3.40991 z"
         sodipodi:ry="3.4099181"
         sodipodi:rx="3.4099181"
         sodipodi:cy="121.77348"
         sodipodi:cx="7.8690419"
         id="path3926-6"
         style="fill:#ffffff;fill-opacity:1;stroke:#000000;stroke-width:2;stroke-miterlimit:4;stroke-opacity:1;stroke-dasharray:none"
         sodipodi:type="arc" />
      <path
         transform="translate(613.30358,354.34464)"
         d="m 11.27896,121.77348 c 0,1.88325 -1.5266723,3.40992 -3.4099181,3.40992 -1.8832457,0 -3.4099181,-1.52667 -3.4099181,-3.40992 0,-1.88324 1.5266724,-3.40991 3.4099181,-3.40991 1.8832458,0 3.4099181,1.52667 3.4099181,3.40991 z"
         sodipodi:ry="3.4099181"
         sodipodi:rx="3.4099181"
         sodipodi:cy="121.77348"
         sodipodi:cx="7.8690419"
         id="path3926-1"
         style="fill:#ffffff;fill-opacity:1;stroke:#000000;stroke-width:2;stroke-miterlimit:4;stroke-opacity:1;stroke-dasharray:none"
         sodipodi:type="arc" />
      <path
         transform="translate(880.54669,435.91847)"
         d="m 11.27896,121.77348 c 0,1.88325 -1.5266723,3.40992 -3.4099181,3.40992 -1.8832457,0 -3.4099181,-1.52667 -3.4099181,-3.40992 0,-1.88324 1.5266724,-3.40991 3.4099181,-3.40991 1.8832458,0 3.4099181,1.52667 3.4099181,3.40991 z"
         sodipodi:ry="3.4099181"
         sodipodi:rx="3.4099181"
         sodipodi:cy="121.77348"
         sodipodi:cx="7.8690419"
         id="path3926-3"
         style="fill:#ffffff;fill-opacity:1;stroke:#000000;stroke-width:2;stroke-miterlimit:4;stroke-opacity:1;stroke-dasharray:none"
         sodipodi:type="arc" />
      <path
         transform="translate(1154.5701,341.1559)"
         d="m 11.27896,121.77348 c 0,1.88325 -1.5266723,3.40992 -3.4099181,3.40992 -1.8832457,0 -3.4099181,-1.52667 -3.4099181,-3.40992 0,-1.88324 1.5266724,-3.40991 3.4099181,-3.40991 1.8832458,0 3.4099181,1.52667 3.4099181,3.40991 z"
         sodipodi:ry="3.4099181"
         sodipodi:rx="3.4099181"
         sodipodi:cy="121.77348"
         sodipodi:cx="7.8690419"
         id="path3926-9"
         style="fill:#ffffff;fill-opacity:1;stroke:#000000;stroke-width:2;stroke-miterlimit:4;stroke-opacity:1;stroke-dasharray:none"
         sodipodi:type="arc" />
      <path
         transform="translate(1229.7338,341.15589)"
         d="m 11.27896,121.77348 c 0,1.88325 -1.5266723,3.40992 -3.4099181,3.40992 -1.8832457,0 -3.4099181,-1.52667 -3.4099181,-3.40992 0,-1.88324 1.5266724,-3.40991 3.4099181,-3.40991 1.8832458,0 3.4099181,1.52667 3.4099181,3.40991 z"
         sodipodi:ry="3.4099181"
         sodipodi:rx="3.4099181"
         sodipodi:cy="121.77348"
         sodipodi:cx="7.8690419"
         id="path3926-5"
         style="fill:#ffffff;fill-opacity:1;stroke:#000000;stroke-width:2;stroke-miterlimit:4;stroke-opacity:1;stroke-dasharray:none"
         sodipodi:type="arc" />
      <path
         transform="translate(567.57621,349.82003)"
         d="m 11.27896,121.77348 c 0,1.88325 -1.5266723,3.40992 -3.4099181,3.40992 -1.8832457,0 -3.4099181,-1.52667 -3.4099181,-3.40992 0,-1.88324 1.5266724,-3.40991 3.4099181,-3.40991 1.8832458,0 3.4099181,1.52667 3.4099181,3.40991 z"
         sodipodi:ry="3.4099181"
         sodipodi:rx="3.4099181"
         sodipodi:cy="121.77348"
         sodipodi:cx="7.8690419"
         id="path3926-1-1"
         style="fill:#ffffff;fill-opacity:1;stroke:#000000;stroke-width:2;stroke-miterlimit:4;stroke-opacity:1;stroke-dasharray:none"
         sodipodi:type="arc" />
      <path
         transform="translate(890.85168,412.31481)"
         d="m 11.27896,121.77348 c 0,1.88325 -1.5266723,3.40992 -3.4099181,3.40992 -1.8832457,0 -3.4099181,-1.52667 -3.4099181,-3.40992 0,-1.88324 1.5266724,-3.40991 3.4099181,-3.40991 1.8832458,0 3.4099181,1.52667 3.4099181,3.40991 z"
         sodipodi:ry="3.4099181"
         sodipodi:rx="3.4099181"
         sodipodi:cy="121.77348"
         sodipodi:cx="7.8690419"
         id="path3926-3-4"
         style="fill:#ffffff;fill-opacity:1;stroke:#000000;stroke-width:2;stroke-miterlimit:4;stroke-opacity:1;stroke-dasharray:none"
         sodipodi:type="arc" />
      <rect
         ry="2.0849866e-15"
         rx="2.8750509e-15"
         y="522.70593"
         x="914.1463"
         height="5.8000002"
         width="31.588663"
         id="rect4977"
         style="fill:#000000;fill-opacity:1;stroke:none" />
      <path
         inkscape:connector-curvature="0"
         id="path4987"
         d="m 911.90904,522.71309 -14.6875,34.53125 5.34375,2.28125 15.65625,-36.8125 -6.3125,0 z"
         style="font-size:medium;font-style:normal;font-variant:normal;font-weight:normal;font-stretch:normal;text-indent:0;text-align:start;text-decoration:none;line-height:normal;letter-spacing:normal;word-spacing:normal;text-transform:none;direction:ltr;block-progression:tb;writing-mode:lr-tb;text-anchor:start;baseline-shift:baseline;color:#000000;fill:#000000;fill-opacity:1;stroke:none;stroke-width:5.80000019;marker:none;visibility:visible;display:inline;overflow:visible;enable-background:accumulate;font-family:Sans;-inkscape-font-specification:Sans" />
      <path
         inkscape:connector-curvature="0"
         id="path4987-4"
         d="m 929.09654,482.36934 -14,32.875 6.3125,0 10.8125,-25.4375 c -0.36836,-0.86304 -0.72546,-1.73055 -1.09375,-2.59375 -0.6677,-1.61536 -1.35823,-3.22906 -2.03125,-4.84375 z"
         style="font-size:medium;font-style:normal;font-variant:normal;font-weight:normal;font-stretch:normal;text-indent:0;text-align:start;text-decoration:none;line-height:normal;letter-spacing:normal;word-spacing:normal;text-transform:none;direction:ltr;block-progression:tb;writing-mode:lr-tb;text-anchor:start;baseline-shift:baseline;color:#000000;fill:#000000;fill-opacity:1;stroke:none;stroke-width:5.80000019;marker:none;visibility:visible;display:inline;overflow:visible;enable-background:accumulate;font-family:Sans;-inkscape-font-specification:Sans" />
      <path
         transform="translate(892.47672,435.91847)"
         d="m 11.27896,121.77348 c 0,1.88325 -1.5266723,3.40992 -3.4099181,3.40992 -1.8832457,0 -3.4099181,-1.52667 -3.4099181,-3.40992 0,-1.88324 1.5266724,-3.40991 3.4099181,-3.40991 1.8832458,0 3.4099181,1.52667 3.4099181,3.40991 z"
         sodipodi:ry="3.4099181"
         sodipodi:rx="3.4099181"
         sodipodi:cy="121.77348"
         sodipodi:cx="7.8690419"
         id="path3926-3-2"
         style="fill:#ffffff;fill-opacity:1;stroke:#000000;stroke-width:2;stroke-miterlimit:4;stroke-opacity:1;stroke-dasharray:none"
         sodipodi:type="arc" />
      <path
         inkscape:connector-curvature="0"
         id="path3842-2"
         d="m 940.2181,522.68184 c 2.35433,5.5423 4.67717,11.08104 6.96875,16.625 3.07192,7.20002 6.14667,14.39376 9.21875,21.59375 l 0.0625,0 4.3125,-3.9375 c -4.86317,-11.47454 -9.70576,-22.8814 -14.53125,-34.28125 l -6.03125,0 z"
         style="font-size:144px;font-style:normal;font-variant:normal;font-weight:normal;font-stretch:normal;line-height:125%;letter-spacing:0px;word-spacing:0px;fill:#000000;fill-opacity:1;stroke:none;font-family:Josefin Sans;-inkscape-font-specification:Josefin Sans" />
      <path
         inkscape:connector-curvature="0"
         id="path3842-2-5"
         d="m 929.12779,482.36934 -3.0625,7.1875 c 2.50821,5.87636 5.02367,11.74775 7.53125,17.625 l 4.6875,-3.1875 c -3.05987,-7.23046 -6.11034,-14.43138 -9.15625,-21.625 z"
         style="font-size:144px;font-style:normal;font-variant:normal;font-weight:normal;font-stretch:normal;line-height:125%;letter-spacing:0px;word-spacing:0px;fill:#000000;fill-opacity:1;stroke:none;font-family:Josefin Sans;-inkscape-font-specification:Josefin Sans" />
      <path
         transform="translate(928.01221,383.41762)"
         d="m 11.27896,121.77348 c 0,1.88325 -1.5266723,3.40992 -3.4099181,3.40992 -1.8832457,0 -3.4099181,-1.52667 -3.4099181,-3.40992 0,-1.88324 1.5266724,-3.40991 3.4099181,-3.40991 1.8832458,0 3.4099181,1.52667 3.4099181,3.40991 z"
         sodipodi:ry="3.4099181"
         sodipodi:rx="3.4099181"
         sodipodi:cy="121.77348"
         sodipodi:cx="7.8690419"
         id="path3926-3-2-3"
         style="fill:#ffffff;fill-opacity:1;stroke:#000000;stroke-width:2;stroke-miterlimit:4;stroke-opacity:1;stroke-dasharray:none"
         sodipodi:type="arc" />
      <path
         transform="translate(950.40428,435.91847)"
         d="m 11.27896,121.77348 c 0,1.88325 -1.5266723,3.40992 -3.4099181,3.40992 -1.8832457,0 -3.4099181,-1.52667 -3.4099181,-3.40992 0,-1.88324 1.5266724,-3.40991 3.4099181,-3.40991 1.8832458,0 3.4099181,1.52667 3.4099181,3.40991 z"
         sodipodi:ry="3.4099181"
         sodipodi:rx="3.4099181"
         sodipodi:cy="121.77348"
         sodipodi:cx="7.8690419"
         id="path3926-3-2-3-9"
         style="fill:#ffffff;fill-opacity:1;stroke:#000000;stroke-width:2;stroke-miterlimit:4;stroke-opacity:1;stroke-dasharray:none"
         sodipodi:type="arc" />
      <path
         sodipodi:nodetypes="cccccccccc"
         inkscape:connector-curvature="0"
         id="rect4977-6"
         d="m 1164.0965,470.78921 0,5.8125 28.3438,0 0,-5.8125 z m 33.2813,0 0,5.8125 40.3125,0 0,-5.8125 z"
         style="fill:#000000;fill-opacity:1;stroke:none" />
      <rect
         transform="matrix(0,1,-1,0,0,0)"
         ry="2.0849866e-15"
         rx="7.9806072e-15"
         y="-1192.4315"
         x="473.22089"
         height="5.8000002"
         width="87.68425"
         id="rect4977-6-2"
         style="fill:#000000;fill-opacity:1;stroke:none" />
      <path
         transform="translate(1154.5701,351.92198)"
         d="m 11.27896,121.77348 c 0,1.88325 -1.5266723,3.40992 -3.4099181,3.40992 -1.8832457,0 -3.4099181,-1.52667 -3.4099181,-3.40992 0,-1.88324 1.5266724,-3.40991 3.4099181,-3.40991 1.8832458,0 3.4099181,1.52667 3.4099181,3.40991 z"
         sodipodi:ry="3.4099181"
         sodipodi:rx="3.4099181"
         sodipodi:cy="121.77348"
         sodipodi:cx="7.8690419"
         id="path3926-9-1"
         style="fill:#ffffff;fill-opacity:1;stroke:#000000;stroke-width:2;stroke-miterlimit:4;stroke-opacity:1;stroke-dasharray:none"
         sodipodi:type="arc" />
      <path
         transform="translate(1229.7338,351.92198)"
         d="m 11.27896,121.77348 c 0,1.88325 -1.5266723,3.40992 -3.4099181,3.40992 -1.8832457,0 -3.4099181,-1.52667 -3.4099181,-3.40992 0,-1.88324 1.5266724,-3.40991 3.4099181,-3.40991 1.8832458,0 3.4099181,1.52667 3.4099181,3.40991 z"
         sodipodi:ry="3.4099181"
         sodipodi:rx="3.4099181"
         sodipodi:cy="121.77348"
         sodipodi:cx="7.8690419"
         id="path3926-5-1"
         style="fill:#ffffff;fill-opacity:1;stroke:#000000;stroke-width:2;stroke-miterlimit:4;stroke-opacity:1;stroke-dasharray:none"
         sodipodi:type="arc" />
      <path
         transform="translate(1192.5743,435.91847)"
         d="m 11.27896,121.77348 c 0,1.88325 -1.5266723,3.40992 -3.4099181,3.40992 -1.8832457,0 -3.4099181,-1.52667 -3.4099181,-3.40992 0,-1.88324 1.5266724,-3.40991 3.4099181,-3.40991 1.8832458,0 3.4099181,1.52667 3.4099181,3.40991 z"
         sodipodi:ry="3.4099181"
         sodipodi:rx="3.4099181"
         sodipodi:cy="121.77348"
         sodipodi:cx="7.8690419"
         id="path3926-9-1-8"
         style="fill:#ffffff;fill-opacity:1;stroke:#000000;stroke-width:2;stroke-miterlimit:4;stroke-opacity:1;stroke-dasharray:none"
         sodipodi:type="arc" />
      <path
         d="m 290.14477,460.13359 5.904,0 0,100.8 -5.904,0 0,-100.8"
         style="font-size:144px;font-style:normal;font-variant:normal;font-weight:normal;font-stretch:normal;line-height:125%;letter-spacing:0px;word-spacing:0px;fill:#000000;fill-opacity:1;stroke:none;font-family:Josefin Sans;-inkscape-font-specification:Josefin Sans"
         id="path3838-3"
         inkscape:connector-curvature="0" />
      <path
         transform="translate(285.22773,341.1559)"
         d="m 11.27896,121.77348 c 0,1.88325 -1.5266723,3.40992 -3.4099181,3.40992 -1.8832457,0 -3.4099181,-1.52667 -3.4099181,-3.40992 0,-1.88324 1.5266724,-3.40991 3.4099181,-3.40991 1.8832458,0 3.4099181,1.52667 3.4099181,3.40991 z"
         sodipodi:ry="3.4099181"
         sodipodi:rx="3.4099181"
         sodipodi:cy="121.77348"
         sodipodi:cx="7.8690419"
         id="path3926-1-1-5"
         style="fill:#ffffff;fill-opacity:1;stroke:#000000;stroke-width:2;stroke-miterlimit:4;stroke-opacity:1;stroke-dasharray:none"
         sodipodi:type="arc" />
      <path
         transform="translate(285.22773,435.91847)"
         d="m 11.27896,121.77348 c 0,1.88325 -1.5266723,3.40992 -3.4099181,3.40992 -1.8832457,0 -3.4099181,-1.52667 -3.4099181,-3.40992 0,-1.88324 1.5266724,-3.40991 3.4099181,-3.40991 1.8832458,0 3.4099181,1.52667 3.4099181,3.40991 z"
         sodipodi:ry="3.4099181"
         sodipodi:rx="3.4099181"
         sodipodi:cy="121.77348"
         sodipodi:cx="7.8690419"
         id="path3926-0"
         style="fill:#ffffff;fill-opacity:1;stroke:#000000;stroke-width:2;stroke-miterlimit:4;stroke-opacity:1;stroke-dasharray:none"
         sodipodi:type="arc" />
      <path
         transform="translate(947.34892,402.47537)"
         d="m 11.27896,121.77348 c 0,1.88325 -1.5266723,3.40992 -3.4099181,3.40992 -1.8832457,0 -3.4099181,-1.52667 -3.4099181,-3.40992 0,-1.88324 1.5266724,-3.40991 3.4099181,-3.40991 1.8832458,0 3.4099181,1.52667 3.4099181,3.40991 z"
         sodipodi:ry="3.4099181"
         sodipodi:rx="3.4099181"
         sodipodi:cy="121.77348"
         sodipodi:cx="7.8690419"
         id="path3926-3-4-0"
         style="fill:#ffffff;fill-opacity:1;stroke:#000000;stroke-width:2;stroke-miterlimit:4;stroke-opacity:1;stroke-dasharray:none"
         sodipodi:type="arc" />
      <text
         sodipodi:linespacing="125%"
         id="text5462"
         y="533.6806"
         x="309.35309"
         style="font-size:12px;font-style:normal;font-weight:normal;line-height:125%;letter-spacing:0px;word-spacing:0px;fill:#000000;fill-opacity:1;stroke:none;font-family:Sans"
         xml:space="preserve"><tspan
           style="font-size:48px;font-style:normal;font-variant:normal;font-weight:normal;font-stretch:normal;font-family:Josefin Sans;-inkscape-font-specification:Josefin Sans"
           y="533.6806"
           x="309.35309"
           id="tspan5464"
           sodipodi:role="line">nternational</tspan></text>
      <text
         sodipodi:linespacing="125%"
         id="text5466"
         y="533.6806"
         x="624.67902"
         style="font-size:12px;font-style:normal;font-weight:normal;line-height:125%;letter-spacing:0px;word-spacing:0px;fill:#000000;fill-opacity:1;stroke:none;font-family:Sans"
         xml:space="preserve"><tspan
           style="font-size:48px;font-style:normal;font-variant:normal;font-weight:normal;font-stretch:normal;font-family:Josefin Sans;-inkscape-font-specification:Josefin Sans"
           y="533.6806"
           x="624.67902"
           id="tspan5468"
           sodipodi:role="line">onference on</tspan></text>
      <text
         sodipodi:linespacing="125%"
         id="text5472"
         y="533.6806"
         x="968.89325"
         style="font-size:12px;font-style:normal;font-weight:normal;line-height:125%;letter-spacing:0px;word-spacing:0px;fill:#000000;fill-opacity:1;stroke:none;font-family:Sans"
         xml:space="preserve"><tspan
           style="font-size:48px;font-style:normal;font-variant:normal;font-weight:normal;font-stretch:normal;font-family:Josefin Sans;-inkscape-font-specification:Josefin Sans"
           y="533.6806"
           x="968.89325"
           id="tspan5474"
           sodipodi:role="line">ppropriate</tspan></text>
      <text
         sodipodi:linespacing="125%"
         id="text5476"
         y="533.6806"
         x="1214.5465"
         style="font-size:12px;font-style:normal;font-weight:normal;line-height:125%;letter-spacing:0px;word-spacing:0px;fill:#000000;fill-opacity:1;stroke:none;font-family:Sans"
         xml:space="preserve"><tspan
           style="font-size:48px;font-style:normal;font-variant:normal;font-weight:normal;font-stretch:normal;font-family:Josefin Sans;-inkscape-font-specification:Josefin Sans"
           y="533.6806"
           x="1214.5465"
           id="tspan5478"
           sodipodi:role="line">echnology</tspan></text>
    </g>
  </g>
</svg>
